# xmcd
#
# Track frame offsets:
#	150
#	17525
#	32919
#	52727
#	64959
#	84071
#	97679
#	111577
#	129713
#	148640
#	164714
#	182186
#
# Disc length: 2606 seconds
#
# Revision: 0
# Processed by: cddbd v1.5.2PL0 Copyright (c) Steve Scherf et al.
# Submitted via: audiograbber 1.83.01
#
DISCID=9e0a2c0c
DTITLE=The Morris's - Audio CD
DYEAR=2006
DGENRE=
TTITLE0=Extreme Makeover
TTITLE1=Living for the Treasure
TTITLE2=That this is not My Home Look
TTITLE3=He's in the Church House Now
TTITLE4=Let the Healing Begin
TTITLE5=High Price to Pay for Low Livin'
TTITLE6=Whale University
TTITLE7=Don't Make this World Your Home
TTITLE8=When I Think of What You're Doing There
TTITLE9=From Your Mouth to God's Ear
TTITLE10=His Life for Mine
TTITLE11=When Your Eyes are Opened
EXTD=
EXTT0=
EXTT1=
EXTT2=
EXTT3=
EXTT4=
EXTT5=
EXTT6=
EXTT7=
EXTT8=
EXTT9=
EXTT10=
EXTT11=
PLAYORDER=
